<mxfile host="app.diagrams.net" modified="2023-10-25T07:07:46.509Z" agent="Mozilla/5.0 (Windows NT 10.0; Win64; x64) AppleWebKit/537.36 (KHTML, like Gecko) Chrome/118.0.0.0 Safari/537.36 Edg/118.0.2088.61" etag="ztWLLnImy5JDRNF5teo3" version="22.0.7" type="github">
  <diagram name="第 1 页" id="ipuzEj6GP7qZSMrPCq-W">
    <mxGraphModel dx="2927" dy="1174" grid="1" gridSize="2" guides="1" tooltips="1" connect="1" arrows="1" fold="1" page="1" pageScale="1" pageWidth="827" pageHeight="1169" math="0" shadow="0">
      <root>
        <mxCell id="0" />
        <mxCell id="1" parent="0" />
        <mxCell id="scv7r5UrWAVEZeCzTQEX-17" value="" style="rounded=1;whiteSpace=wrap;html=1;fillColor=#8F93FF;" vertex="1" parent="1">
          <mxGeometry x="-260" y="381" width="1180" height="98" as="geometry" />
        </mxCell>
        <mxCell id="scv7r5UrWAVEZeCzTQEX-16" value="" style="rounded=1;whiteSpace=wrap;html=1;fillColor=#EA6B66;" vertex="1" parent="1">
          <mxGeometry x="-260" y="251" width="1180" height="98" as="geometry" />
        </mxCell>
        <mxCell id="scv7r5UrWAVEZeCzTQEX-15" value="" style="rounded=1;whiteSpace=wrap;html=1;fillColor=#8F93FF;" vertex="1" parent="1">
          <mxGeometry x="-260" y="123" width="1180" height="98" as="geometry" />
        </mxCell>
        <mxCell id="scv7r5UrWAVEZeCzTQEX-4" value="" style="endArrow=classic;html=1;rounded=0;exitX=0.5;exitY=1;exitDx=0;exitDy=0;entryX=0.5;entryY=0;entryDx=0;entryDy=0;strokeColor=#fe0101;strokeWidth=5;" edge="1" parent="1" source="scv7r5UrWAVEZeCzTQEX-1" target="scv7r5UrWAVEZeCzTQEX-2">
          <mxGeometry width="50" height="50" relative="1" as="geometry">
            <mxPoint x="326" y="390" as="sourcePoint" />
            <mxPoint x="376" y="340" as="targetPoint" />
          </mxGeometry>
        </mxCell>
        <mxCell id="scv7r5UrWAVEZeCzTQEX-5" value="" style="endArrow=classic;html=1;rounded=0;exitX=0.5;exitY=1;exitDx=0;exitDy=0;entryX=0.5;entryY=0;entryDx=0;entryDy=0;strokeColor=#0800FF;strokeWidth=5;" edge="1" parent="1" source="scv7r5UrWAVEZeCzTQEX-1" target="scv7r5UrWAVEZeCzTQEX-3">
          <mxGeometry width="50" height="50" relative="1" as="geometry">
            <mxPoint x="326" y="390" as="sourcePoint" />
            <mxPoint x="376" y="340" as="targetPoint" />
          </mxGeometry>
        </mxCell>
        <mxCell id="scv7r5UrWAVEZeCzTQEX-6" value="" style="ellipse;whiteSpace=wrap;html=1;aspect=fixed;fillColor=#D4E1F5;" vertex="1" parent="1">
          <mxGeometry x="-34" y="390" width="80" height="80" as="geometry" />
        </mxCell>
        <mxCell id="scv7r5UrWAVEZeCzTQEX-8" value="" style="ellipse;whiteSpace=wrap;html=1;aspect=fixed;fillColor=#D4E1F5;" vertex="1" parent="1">
          <mxGeometry x="207" y="390" width="80" height="80" as="geometry" />
        </mxCell>
        <mxCell id="scv7r5UrWAVEZeCzTQEX-9" value="" style="ellipse;whiteSpace=wrap;html=1;aspect=fixed;fillColor=#D4E1F5;" vertex="1" parent="1">
          <mxGeometry x="367" y="390" width="80" height="80" as="geometry" />
        </mxCell>
        <mxCell id="scv7r5UrWAVEZeCzTQEX-10" value="" style="ellipse;whiteSpace=wrap;html=1;aspect=fixed;fillColor=#D4E1F5;" vertex="1" parent="1">
          <mxGeometry x="606" y="390" width="80" height="80" as="geometry" />
        </mxCell>
        <mxCell id="scv7r5UrWAVEZeCzTQEX-11" value="" style="endArrow=classic;html=1;rounded=0;exitX=0.5;exitY=1;exitDx=0;exitDy=0;entryX=0.5;entryY=0;entryDx=0;entryDy=0;strokeColor=#FF1100;strokeWidth=5;" edge="1" parent="1" source="scv7r5UrWAVEZeCzTQEX-2" target="scv7r5UrWAVEZeCzTQEX-6">
          <mxGeometry width="50" height="50" relative="1" as="geometry">
            <mxPoint x="326" y="390" as="sourcePoint" />
            <mxPoint x="376" y="340" as="targetPoint" />
          </mxGeometry>
        </mxCell>
        <mxCell id="scv7r5UrWAVEZeCzTQEX-12" value="" style="endArrow=classic;html=1;rounded=0;exitX=0.5;exitY=1;exitDx=0;exitDy=0;entryX=0.5;entryY=0;entryDx=0;entryDy=0;strokeColor=#1100FF;strokeWidth=5;" edge="1" parent="1" source="scv7r5UrWAVEZeCzTQEX-2" target="scv7r5UrWAVEZeCzTQEX-8">
          <mxGeometry width="50" height="50" relative="1" as="geometry">
            <mxPoint x="326" y="390" as="sourcePoint" />
            <mxPoint x="376" y="340" as="targetPoint" />
          </mxGeometry>
        </mxCell>
        <mxCell id="scv7r5UrWAVEZeCzTQEX-13" value="" style="endArrow=classic;html=1;rounded=0;exitX=0.5;exitY=1;exitDx=0;exitDy=0;entryX=0.5;entryY=0;entryDx=0;entryDy=0;strokeColor=#FF0000;strokeWidth=5;" edge="1" parent="1" source="scv7r5UrWAVEZeCzTQEX-3" target="scv7r5UrWAVEZeCzTQEX-9">
          <mxGeometry width="50" height="50" relative="1" as="geometry">
            <mxPoint x="326" y="390" as="sourcePoint" />
            <mxPoint x="376" y="340" as="targetPoint" />
          </mxGeometry>
        </mxCell>
        <mxCell id="scv7r5UrWAVEZeCzTQEX-14" value="" style="endArrow=classic;html=1;rounded=0;exitX=0.5;exitY=1;exitDx=0;exitDy=0;entryX=0.5;entryY=0;entryDx=0;entryDy=0;strokeColor=#0000FF;strokeWidth=5;" edge="1" parent="1" source="scv7r5UrWAVEZeCzTQEX-3" target="scv7r5UrWAVEZeCzTQEX-10">
          <mxGeometry width="50" height="50" relative="1" as="geometry">
            <mxPoint x="326" y="390" as="sourcePoint" />
            <mxPoint x="376" y="340" as="targetPoint" />
          </mxGeometry>
        </mxCell>
        <mxCell id="scv7r5UrWAVEZeCzTQEX-1" value="" style="ellipse;whiteSpace=wrap;html=1;aspect=fixed;fillColor=#D4E1F5;" vertex="1" parent="1">
          <mxGeometry x="287" y="132" width="80" height="80" as="geometry" />
        </mxCell>
        <mxCell id="scv7r5UrWAVEZeCzTQEX-2" value="" style="ellipse;whiteSpace=wrap;html=1;aspect=fixed;strokeColor=#330000;fillColor=#D4E1F5;" vertex="1" parent="1">
          <mxGeometry x="87" y="260" width="80" height="80" as="geometry" />
        </mxCell>
        <mxCell id="scv7r5UrWAVEZeCzTQEX-3" value="" style="ellipse;whiteSpace=wrap;html=1;aspect=fixed;fillColor=#D4E1F5;" vertex="1" parent="1">
          <mxGeometry x="486" y="260" width="80" height="80" as="geometry" />
        </mxCell>
        <mxCell id="scv7r5UrWAVEZeCzTQEX-18" value="" style="rounded=1;whiteSpace=wrap;html=1;fillColor=#8F93FF;" vertex="1" parent="1">
          <mxGeometry x="1144" y="123" width="76" height="37" as="geometry" />
        </mxCell>
        <mxCell id="scv7r5UrWAVEZeCzTQEX-19" value="" style="rounded=1;whiteSpace=wrap;html=1;fillColor=#EA6B66;" vertex="1" parent="1">
          <mxGeometry x="1144" y="183" width="76" height="37" as="geometry" />
        </mxCell>
        <mxCell id="scv7r5UrWAVEZeCzTQEX-20" value="&lt;font style=&quot;font-size: 24px;&quot;&gt;&lt;b&gt;敌方回合&lt;/b&gt;&lt;/font&gt;" style="text;html=1;strokeColor=none;fillColor=none;align=center;verticalAlign=middle;whiteSpace=wrap;rounded=0;" vertex="1" parent="1">
          <mxGeometry x="1234" y="123" width="119" height="30" as="geometry" />
        </mxCell>
        <mxCell id="scv7r5UrWAVEZeCzTQEX-21" value="&lt;font style=&quot;font-size: 24px;&quot;&gt;&lt;b&gt;我方回合&lt;/b&gt;&lt;/font&gt;" style="text;html=1;strokeColor=none;fillColor=none;align=center;verticalAlign=middle;whiteSpace=wrap;rounded=0;" vertex="1" parent="1">
          <mxGeometry x="1234" y="183" width="119" height="30" as="geometry" />
        </mxCell>
        <mxCell id="scv7r5UrWAVEZeCzTQEX-22" value="" style="endArrow=classic;html=1;rounded=0;strokeColor=#fe0101;strokeWidth=5;" edge="1" parent="1">
          <mxGeometry width="50" height="50" relative="1" as="geometry">
            <mxPoint x="1220" y="255" as="sourcePoint" />
            <mxPoint x="1140" y="255" as="targetPoint" />
          </mxGeometry>
        </mxCell>
        <mxCell id="scv7r5UrWAVEZeCzTQEX-23" value="&lt;font style=&quot;font-size: 24px;&quot;&gt;&lt;b&gt;优势策略&lt;/b&gt;&lt;/font&gt;" style="text;html=1;strokeColor=none;fillColor=none;align=center;verticalAlign=middle;whiteSpace=wrap;rounded=0;" vertex="1" parent="1">
          <mxGeometry x="1234" y="243" width="119" height="30" as="geometry" />
        </mxCell>
        <mxCell id="scv7r5UrWAVEZeCzTQEX-24" value="" style="endArrow=classic;html=1;rounded=0;strokeColor=#8F93FF;strokeWidth=5;" edge="1" parent="1">
          <mxGeometry width="50" height="50" relative="1" as="geometry">
            <mxPoint x="1224" y="306" as="sourcePoint" />
            <mxPoint x="1144" y="306" as="targetPoint" />
          </mxGeometry>
        </mxCell>
        <mxCell id="scv7r5UrWAVEZeCzTQEX-25" value="&lt;font style=&quot;font-size: 24px;&quot;&gt;&lt;b&gt;劣势策略&lt;/b&gt;&lt;/font&gt;" style="text;html=1;strokeColor=none;fillColor=none;align=center;verticalAlign=middle;whiteSpace=wrap;rounded=0;" vertex="1" parent="1">
          <mxGeometry x="1238" y="294" width="119" height="30" as="geometry" />
        </mxCell>
        <mxCell id="scv7r5UrWAVEZeCzTQEX-26" value="&lt;b style=&quot;font-size: 36px;&quot;&gt;.&lt;br&gt;.&lt;br&gt;.&lt;br&gt;.&lt;br&gt;.&lt;br&gt;.&lt;br&gt;.&lt;/b&gt;" style="text;html=1;strokeColor=none;fillColor=none;align=center;verticalAlign=middle;whiteSpace=wrap;rounded=0;" vertex="1" parent="1">
          <mxGeometry x="297" y="490" width="60" height="330" as="geometry" />
        </mxCell>
        <mxCell id="scv7r5UrWAVEZeCzTQEX-27" value="" style="rounded=1;whiteSpace=wrap;html=1;fillColor=#EA6B66;" vertex="1" parent="1">
          <mxGeometry x="-262" y="829" width="1180" height="98" as="geometry" />
        </mxCell>
        <mxCell id="scv7r5UrWAVEZeCzTQEX-28" value="" style="ellipse;whiteSpace=wrap;html=1;aspect=fixed;fillColor=#D4E1F5;" vertex="1" parent="1">
          <mxGeometry x="800" y="838" width="80" height="80" as="geometry" />
        </mxCell>
        <mxCell id="scv7r5UrWAVEZeCzTQEX-29" value="" style="ellipse;whiteSpace=wrap;html=1;aspect=fixed;fillColor=#D4E1F5;" vertex="1" parent="1">
          <mxGeometry x="686" y="838" width="80" height="80" as="geometry" />
        </mxCell>
        <mxCell id="scv7r5UrWAVEZeCzTQEX-30" value="" style="ellipse;whiteSpace=wrap;html=1;aspect=fixed;fillColor=#D4E1F5;" vertex="1" parent="1">
          <mxGeometry x="494" y="838" width="80" height="80" as="geometry" />
        </mxCell>
        <mxCell id="scv7r5UrWAVEZeCzTQEX-31" value="" style="ellipse;whiteSpace=wrap;html=1;aspect=fixed;fillColor=#D4E1F5;" vertex="1" parent="1">
          <mxGeometry x="380" y="838" width="80" height="80" as="geometry" />
        </mxCell>
        <mxCell id="scv7r5UrWAVEZeCzTQEX-32" value="" style="ellipse;whiteSpace=wrap;html=1;aspect=fixed;fillColor=#D4E1F5;" vertex="1" parent="1">
          <mxGeometry x="207" y="838" width="80" height="80" as="geometry" />
        </mxCell>
        <mxCell id="scv7r5UrWAVEZeCzTQEX-33" value="" style="ellipse;whiteSpace=wrap;html=1;aspect=fixed;fillColor=#D4E1F5;" vertex="1" parent="1">
          <mxGeometry x="93" y="838" width="80" height="80" as="geometry" />
        </mxCell>
        <mxCell id="scv7r5UrWAVEZeCzTQEX-34" value="" style="ellipse;whiteSpace=wrap;html=1;aspect=fixed;fillColor=#D4E1F5;" vertex="1" parent="1">
          <mxGeometry x="-106" y="838" width="80" height="80" as="geometry" />
        </mxCell>
        <mxCell id="scv7r5UrWAVEZeCzTQEX-35" value="" style="ellipse;whiteSpace=wrap;html=1;aspect=fixed;fillColor=#D4E1F5;" vertex="1" parent="1">
          <mxGeometry x="-220" y="838" width="80" height="80" as="geometry" />
        </mxCell>
        <mxCell id="scv7r5UrWAVEZeCzTQEX-36" value="" style="endArrow=classic;html=1;rounded=0;strokeWidth=8;strokeColor=#FF8000;" edge="1" parent="1">
          <mxGeometry width="50" height="50" relative="1" as="geometry">
            <mxPoint x="-320" y="160" as="sourcePoint" />
            <mxPoint x="-320" y="880" as="targetPoint" />
          </mxGeometry>
        </mxCell>
        <mxCell id="scv7r5UrWAVEZeCzTQEX-37" value="&lt;b&gt;&lt;font style=&quot;font-size: 36px;&quot;&gt;多&lt;br&gt;步&lt;br&gt;博&lt;br&gt;弈&lt;br&gt;预&lt;br&gt;测&lt;br&gt;&lt;/font&gt;&lt;/b&gt;" style="text;html=1;strokeColor=none;fillColor=none;align=center;verticalAlign=middle;whiteSpace=wrap;rounded=0;" vertex="1" parent="1">
          <mxGeometry x="-380" y="280" width="60" height="400" as="geometry" />
        </mxCell>
        <mxCell id="scv7r5UrWAVEZeCzTQEX-40" value="&lt;b&gt;&lt;font style=&quot;font-size: 36px;&quot;&gt;评估收益(损失)&lt;br&gt;&lt;/font&gt;&lt;/b&gt;" style="text;html=1;strokeColor=none;fillColor=none;align=center;verticalAlign=middle;whiteSpace=wrap;rounded=0;" vertex="1" parent="1">
          <mxGeometry x="320" y="960" width="273" height="60" as="geometry" />
        </mxCell>
        <mxCell id="scv7r5UrWAVEZeCzTQEX-39" value="" style="endArrow=classic;html=1;rounded=0;exitX=0.5;exitY=1;exitDx=0;exitDy=0;strokeColor=#FF4DCF;strokeWidth=8;" edge="1" parent="1">
          <mxGeometry width="50" height="50" relative="1" as="geometry">
            <mxPoint x="320" y="927" as="sourcePoint" />
            <mxPoint x="930" y="300" as="targetPoint" />
            <Array as="points">
              <mxPoint x="320" y="1040" />
              <mxPoint x="1040" y="1040" />
              <mxPoint x="1040" y="300" />
            </Array>
          </mxGeometry>
        </mxCell>
        <mxCell id="scv7r5UrWAVEZeCzTQEX-41" value="" style="endArrow=classic;html=1;rounded=0;strokeWidth=8;strokeColor=#64FF59;" edge="1" parent="1">
          <mxGeometry width="50" height="50" relative="1" as="geometry">
            <mxPoint x="1036" y="560" as="sourcePoint" />
            <mxPoint x="930" y="560" as="targetPoint" />
          </mxGeometry>
        </mxCell>
        <mxCell id="scv7r5UrWAVEZeCzTQEX-42" value="" style="endArrow=classic;html=1;rounded=0;strokeWidth=8;strokeColor=#64FF59;" edge="1" parent="1">
          <mxGeometry width="50" height="50" relative="1" as="geometry">
            <mxPoint x="1036" y="720" as="sourcePoint" />
            <mxPoint x="930" y="720" as="targetPoint" />
          </mxGeometry>
        </mxCell>
        <mxCell id="scv7r5UrWAVEZeCzTQEX-43" value="&lt;b&gt;&lt;font style=&quot;font-size: 36px;&quot;&gt;策&lt;br&gt;略&lt;br&gt;反&lt;br&gt;选&lt;br&gt;&lt;/font&gt;&lt;/b&gt;" style="text;html=1;strokeColor=none;fillColor=none;align=center;verticalAlign=middle;whiteSpace=wrap;rounded=0;" vertex="1" parent="1">
          <mxGeometry x="1050" y="530" width="60" height="210" as="geometry" />
        </mxCell>
        <mxCell id="scv7r5UrWAVEZeCzTQEX-44" value="" style="endArrow=classic;html=1;rounded=0;strokeWidth=8;strokeColor=#64FF59;" edge="1" parent="1">
          <mxGeometry width="50" height="50" relative="1" as="geometry">
            <mxPoint x="1036" y="300" as="sourcePoint" />
            <mxPoint x="930" y="299.89" as="targetPoint" />
          </mxGeometry>
        </mxCell>
        <mxCell id="scv7r5UrWAVEZeCzTQEX-56" value="" style="endArrow=classic;html=1;rounded=0;strokeWidth=6;strokeColor=#009999;" edge="1" parent="1">
          <mxGeometry width="50" height="50" relative="1" as="geometry">
            <mxPoint x="1116" y="638" as="sourcePoint" />
            <mxPoint x="1472" y="592" as="targetPoint" />
            <Array as="points">
              <mxPoint x="1472" y="638" />
            </Array>
          </mxGeometry>
        </mxCell>
        <mxCell id="scv7r5UrWAVEZeCzTQEX-57" value="" style="group" vertex="1" connectable="0" parent="1">
          <mxGeometry x="1266" y="506" width="254" height="110" as="geometry" />
        </mxCell>
        <mxCell id="scv7r5UrWAVEZeCzTQEX-53" value="" style="rounded=1;whiteSpace=wrap;html=1;dashed=1;strokeWidth=2;" vertex="1" parent="scv7r5UrWAVEZeCzTQEX-57">
          <mxGeometry x="52" y="26" width="120" height="60" as="geometry" />
        </mxCell>
        <mxCell id="scv7r5UrWAVEZeCzTQEX-55" value="" style="rounded=1;whiteSpace=wrap;html=1;dashed=1;strokeWidth=2;" vertex="1" parent="scv7r5UrWAVEZeCzTQEX-57">
          <mxGeometry x="184" y="28" width="50" height="54" as="geometry" />
        </mxCell>
        <mxCell id="scv7r5UrWAVEZeCzTQEX-51" value="&lt;font style=&quot;font-size: 36px;&quot;&gt;&lt;svg style=&quot;vertical-align: -0.566ex; font-size: 36px;&quot; xmlns:xlink=&quot;http://www.w3.org/1999/xlink&quot; viewBox=&quot;0 -750 5566.3 1000&quot; role=&quot;img&quot; height=&quot;2.262ex&quot; width=&quot;12.593ex&quot; xmlns=&quot;http://www.w3.org/2000/svg&quot;&gt;&lt;defs style=&quot;font-size: 36px;&quot;&gt;&lt;path d=&quot;M40 437Q21 437 21 445Q21 450 37 501T71 602L88 651Q93 669 101 677H569H659Q691 677 697 676T704 667Q704 661 687 553T668 444Q668 437 649 437Q640 437 637 437T631 442L629 445Q629 451 635 490T641 551Q641 586 628 604T573 629Q568 630 515 631Q469 631 457 630T439 622Q438 621 368 343T298 60Q298 48 386 46Q418 46 427 45T436 36Q436 31 433 22Q429 4 424 1L422 0Q419 0 415 0Q410 0 363 1T228 2Q99 2 64 0H49Q43 6 43 9T45 27Q49 40 55 46H83H94Q174 46 189 55Q190 56 191 56Q196 59 201 76T241 233Q258 301 269 344Q339 619 339 625Q339 630 310 630H279Q212 630 191 624Q146 614 121 583T67 467Q60 445 57 441T43 437H40Z&quot; id=&quot;MJX-2-TEX-I-1D447&quot; style=&quot;font-size: 36px;&quot;&gt;&lt;/path&gt;&lt;path d=&quot;M94 250Q94 319 104 381T127 488T164 576T202 643T244 695T277 729T302 750H315H319Q333 750 333 741Q333 738 316 720T275 667T226 581T184 443T167 250T184 58T225 -81T274 -167T316 -220T333 -241Q333 -250 318 -250H315H302L274 -226Q180 -141 137 -14T94 250Z&quot; id=&quot;MJX-2-TEX-N-28&quot; style=&quot;font-size: 36px;&quot;&gt;&lt;/path&gt;&lt;path d=&quot;M52 289Q59 331 106 386T222 442Q257 442 286 424T329 379Q371 442 430 442Q467 442 494 420T522 361Q522 332 508 314T481 292T458 288Q439 288 427 299T415 328Q415 374 465 391Q454 404 425 404Q412 404 406 402Q368 386 350 336Q290 115 290 78Q290 50 306 38T341 26Q378 26 414 59T463 140Q466 150 469 151T485 153H489Q504 153 504 145Q504 144 502 134Q486 77 440 33T333 -11Q263 -11 227 52Q186 -10 133 -10H127Q78 -10 57 16T35 71Q35 103 54 123T99 143Q142 143 142 101Q142 81 130 66T107 46T94 41L91 40Q91 39 97 36T113 29T132 26Q168 26 194 71Q203 87 217 139T245 247T261 313Q266 340 266 352Q266 380 251 392T217 404Q177 404 142 372T93 290Q91 281 88 280T72 278H58Q52 284 52 289Z&quot; id=&quot;MJX-2-TEX-I-1D465&quot; style=&quot;font-size: 36px;&quot;&gt;&lt;/path&gt;&lt;path d=&quot;M184 600Q184 624 203 642T247 661Q265 661 277 649T290 619Q290 596 270 577T226 557Q211 557 198 567T184 600ZM21 287Q21 295 30 318T54 369T98 420T158 442Q197 442 223 419T250 357Q250 340 236 301T196 196T154 83Q149 61 149 51Q149 26 166 26Q175 26 185 29T208 43T235 78T260 137Q263 149 265 151T282 153Q302 153 302 143Q302 135 293 112T268 61T223 11T161 -11Q129 -11 102 10T74 74Q74 91 79 106T122 220Q160 321 166 341T173 380Q173 404 156 404H154Q124 404 99 371T61 287Q60 286 59 284T58 281T56 279T53 278T49 278T41 278H27Q21 284 21 287Z&quot; id=&quot;MJX-2-TEX-I-1D456&quot; style=&quot;font-size: 36px;&quot;&gt;&lt;/path&gt;&lt;path d=&quot;M78 35T78 60T94 103T137 121Q165 121 187 96T210 8Q210 -27 201 -60T180 -117T154 -158T130 -185T117 -194Q113 -194 104 -185T95 -172Q95 -168 106 -156T131 -126T157 -76T173 -3V9L172 8Q170 7 167 6T161 3T152 1T140 0Q113 0 96 17Z&quot; id=&quot;MJX-2-TEX-N-2C&quot; style=&quot;font-size: 36px;&quot;&gt;&lt;/path&gt;&lt;path d=&quot;M84 237T84 250T98 270H679Q694 262 694 250T679 230H98Q84 237 84 250Z&quot; id=&quot;MJX-2-TEX-N-2212&quot; style=&quot;font-size: 36px;&quot;&gt;&lt;/path&gt;&lt;path d=&quot;M366 683Q367 683 438 688T511 694Q523 694 523 686Q523 679 450 384T375 83T374 68Q374 26 402 26Q411 27 422 35Q443 55 463 131Q469 151 473 152Q475 153 483 153H487H491Q506 153 506 145Q506 140 503 129Q490 79 473 48T445 8T417 -8Q409 -10 393 -10Q359 -10 336 5T306 36L300 51Q299 52 296 50Q294 48 292 46Q233 -10 172 -10Q117 -10 75 30T33 157Q33 205 53 255T101 341Q148 398 195 420T280 442Q336 442 364 400Q369 394 369 396Q370 400 396 505T424 616Q424 629 417 632T378 637H357Q351 643 351 645T353 664Q358 683 366 683ZM352 326Q329 405 277 405Q242 405 210 374T160 293Q131 214 119 129Q119 126 119 118T118 106Q118 61 136 44T179 26Q233 26 290 98L298 109L352 326Z&quot; id=&quot;MJX-2-TEX-I-1D451&quot; style=&quot;font-size: 36px;&quot;&gt;&lt;/path&gt;&lt;path d=&quot;M60 749L64 750Q69 750 74 750H86L114 726Q208 641 251 514T294 250Q294 182 284 119T261 12T224 -76T186 -143T145 -194T113 -227T90 -246Q87 -249 86 -250H74Q66 -250 63 -250T58 -247T55 -238Q56 -237 66 -225Q221 -64 221 250T66 725Q56 737 55 738Q55 746 60 749Z&quot; id=&quot;MJX-2-TEX-N-29&quot; style=&quot;font-size: 36px;&quot;&gt;&lt;/path&gt;&lt;/defs&gt;&lt;g transform=&quot;scale(1,-1)&quot; stroke-width=&quot;0&quot; fill=&quot;currentColor&quot; stroke=&quot;currentColor&quot; style=&quot;font-size: 36px;&quot;&gt;&lt;g data-mml-node=&quot;math&quot; style=&quot;font-size: 36px;&quot;&gt;&lt;g data-mml-node=&quot;mi&quot; style=&quot;font-size: 36px;&quot;&gt;&lt;use xlink:href=&quot;#MJX-2-TEX-I-1D447&quot; data-c=&quot;1D447&quot; style=&quot;font-size: 36px;&quot;&gt;&lt;/use&gt;&lt;/g&gt;&lt;g transform=&quot;translate(704,0)&quot; data-mml-node=&quot;mo&quot; style=&quot;font-size: 36px;&quot;&gt;&lt;use xlink:href=&quot;#MJX-2-TEX-N-28&quot; data-c=&quot;28&quot; style=&quot;font-size: 36px;&quot;&gt;&lt;/use&gt;&lt;/g&gt;&lt;g transform=&quot;translate(1093,0)&quot; data-mml-node=&quot;msub&quot; style=&quot;font-size: 36px;&quot;&gt;&lt;g data-mml-node=&quot;mi&quot; style=&quot;font-size: 36px;&quot;&gt;&lt;use xlink:href=&quot;#MJX-2-TEX-I-1D465&quot; data-c=&quot;1D465&quot; style=&quot;font-size: 36px;&quot;&gt;&lt;/use&gt;&lt;/g&gt;&lt;g transform=&quot;translate(605,-150) scale(0.707)&quot; data-mml-node=&quot;mi&quot; style=&quot;font-size: 36px;&quot;&gt;&lt;use xlink:href=&quot;#MJX-2-TEX-I-1D456&quot; data-c=&quot;1D456&quot; style=&quot;font-size: 36px;&quot;&gt;&lt;/use&gt;&lt;/g&gt;&lt;/g&gt;&lt;g transform=&quot;translate(1992,0)&quot; data-mml-node=&quot;mo&quot; style=&quot;font-size: 36px;&quot;&gt;&lt;use xlink:href=&quot;#MJX-2-TEX-N-2C&quot; data-c=&quot;2C&quot; style=&quot;font-size: 36px;&quot;&gt;&lt;/use&gt;&lt;/g&gt;&lt;g transform=&quot;translate(2436.6,0)&quot; data-mml-node=&quot;msub&quot; style=&quot;font-size: 36px;&quot;&gt;&lt;g data-mml-node=&quot;mi&quot; style=&quot;font-size: 36px;&quot;&gt;&lt;use xlink:href=&quot;#MJX-2-TEX-I-1D465&quot; data-c=&quot;1D465&quot; style=&quot;font-size: 36px;&quot;&gt;&lt;/use&gt;&lt;/g&gt;&lt;g data-mjx-texclass=&quot;ORD&quot; transform=&quot;translate(605,-150) scale(0.707)&quot; data-mml-node=&quot;TeXAtom&quot; style=&quot;font-size: 36px;&quot;&gt;&lt;g data-mml-node=&quot;mo&quot; style=&quot;font-size: 36px;&quot;&gt;&lt;use xlink:href=&quot;#MJX-2-TEX-N-2212&quot; data-c=&quot;2212&quot; style=&quot;font-size: 36px;&quot;&gt;&lt;/use&gt;&lt;/g&gt;&lt;g transform=&quot;translate(778,0)&quot; data-mml-node=&quot;mi&quot; style=&quot;font-size: 36px;&quot;&gt;&lt;use xlink:href=&quot;#MJX-2-TEX-I-1D456&quot; data-c=&quot;1D456&quot; style=&quot;font-size: 36px;&quot;&gt;&lt;/use&gt;&lt;/g&gt;&lt;/g&gt;&lt;/g&gt;&lt;g transform=&quot;translate(3885.7,0)&quot; data-mml-node=&quot;mo&quot; style=&quot;font-size: 36px;&quot;&gt;&lt;use xlink:href=&quot;#MJX-2-TEX-N-2C&quot; data-c=&quot;2C&quot; style=&quot;font-size: 36px;&quot;&gt;&lt;/use&gt;&lt;/g&gt;&lt;g transform=&quot;translate(4330.4,0)&quot; data-mml-node=&quot;msub&quot; style=&quot;font-size: 36px;&quot;&gt;&lt;g data-mml-node=&quot;mi&quot; style=&quot;font-size: 36px;&quot;&gt;&lt;use xlink:href=&quot;#MJX-2-TEX-I-1D451&quot; data-c=&quot;1D451&quot; style=&quot;font-size: 36px;&quot;&gt;&lt;/use&gt;&lt;/g&gt;&lt;g transform=&quot;translate(553,-150) scale(0.707)&quot; data-mml-node=&quot;mi&quot; style=&quot;font-size: 36px;&quot;&gt;&lt;use xlink:href=&quot;#MJX-2-TEX-I-1D456&quot; data-c=&quot;1D456&quot; style=&quot;font-size: 36px;&quot;&gt;&lt;/use&gt;&lt;/g&gt;&lt;/g&gt;&lt;g transform=&quot;translate(5177.3,0)&quot; data-mml-node=&quot;mo&quot; style=&quot;font-size: 36px;&quot;&gt;&lt;use xlink:href=&quot;#MJX-2-TEX-N-29&quot; data-c=&quot;29&quot; style=&quot;font-size: 36px;&quot;&gt;&lt;/use&gt;&lt;/g&gt;&lt;/g&gt;&lt;/g&gt;&lt;/svg&gt;&lt;/font&gt;" style="text;html=1;strokeColor=none;fillColor=none;align=center;verticalAlign=middle;whiteSpace=wrap;rounded=0;fontSize=36;fontStyle=0" vertex="1" parent="scv7r5UrWAVEZeCzTQEX-57">
          <mxGeometry y="-2" width="254" height="110" as="geometry" />
        </mxCell>
        <mxCell id="scv7r5UrWAVEZeCzTQEX-58" value="" style="endArrow=classic;html=1;rounded=0;strokeWidth=6;strokeColor=#009999;" edge="1" parent="1">
          <mxGeometry width="50" height="50" relative="1" as="geometry">
            <mxPoint x="1374" y="636" as="sourcePoint" />
            <mxPoint x="1374" y="594" as="targetPoint" />
          </mxGeometry>
        </mxCell>
      </root>
    </mxGraphModel>
  </diagram>
</mxfile>
